<svg xmlns="http://www.w3.org/2000/svg" width="25" height="25" viewBox="0 0 25 25">
  <g id="Group_327" data-name="Group 327" transform="translate(-1878 -37)" fill="#ffffff">
    <path id="ic_exit_to_app_24px" d="M12.847,20.486l1.958,1.958L21.75,15.5,14.806,8.556l-1.958,1.958,3.583,3.6H3v2.778H16.431ZM25.222,3H5.778A2.777,2.777,0,0,0,3,5.778v5.556H5.778V5.778H25.222V25.222H5.778V19.667H3v5.556A2.777,2.777,0,0,0,5.778,28H25.222A2.786,2.786,0,0,0,28,25.222V5.778A2.786,2.786,0,0,0,25.222,3Z" transform="translate(1875 34)"/>
  </g>
</svg>
